<svg width="38" height="38" viewBox="0 0 38 38" fill="none" xmlns="http://www.w3.org/2000/svg">
<path d="M28.0084 17.8125H5.9375C5.62256 17.8125 5.32051 17.9376 5.09781 18.1603C4.87511 18.383 4.75 18.6851 4.75 19C4.75 19.315 4.87511 19.617 5.09781 19.8397C5.32051 20.0624 5.62256 20.1875 5.9375 20.1875H28.0084L19.3468 28.8468C19.1238 29.0698 18.9985 29.3722 18.9985 29.6875C18.9985 30.0029 19.1238 30.3053 19.3468 30.5283C19.5697 30.7513 19.8722 30.8765 20.1875 30.8765C20.5028 30.8765 20.8053 30.7513 21.0282 30.5283L31.7157 19.8408C31.8263 19.7305 31.9141 19.5994 31.9739 19.4552C32.0338 19.3109 32.0646 19.1562 32.0646 19C32.0646 18.8438 32.0338 18.6892 31.9739 18.5449C31.9141 18.4006 31.8263 18.2696 31.7157 18.1593L21.0282 7.47178C20.8053 7.2488 20.5028 7.12354 20.1875 7.12354C19.8722 7.12354 19.5697 7.2488 19.3468 7.47178C19.1238 7.69477 18.9985 7.99719 18.9985 8.31254C18.9985 8.62788 19.1238 8.9303 19.3468 9.15329L28.0084 17.8125Z" fill="black"/>
</svg>
