<svg width="56" height="56" viewBox="0 0 56 56" fill="none" xmlns="http://www.w3.org/2000/svg">
<g clip-path="url(#clip0_79_178)">
<g clip-path="url(#clip1_79_178)">
<path d="M42.875 0H13.125C5.87626 0 0 5.87626 0 13.125V42.875C0 50.1237 5.87626 56 13.125 56H42.875C50.1237 56 56 50.1237 56 42.875V13.125C56 5.87626 50.1237 0 42.875 0Z" fill="url(#paint0_radial_79_178)"/>
<path d="M42.875 0H13.125C5.87626 0 0 5.87626 0 13.125V42.875C0 50.1237 5.87626 56 13.125 56H42.875C50.1237 56 56 50.1237 56 42.875V13.125C56 5.87626 50.1237 0 42.875 0Z" fill="url(#paint1_radial_79_178)"/>
<path d="M28.002 6.125C22.0612 6.125 21.3154 6.15103 18.9823 6.25713C16.6534 6.36388 15.0638 6.73247 13.673 7.27344C12.234 7.83212 11.0136 8.57959 9.79781 9.79584C8.58091 11.0119 7.83344 12.2323 7.273 13.6706C6.7305 15.0618 6.36147 16.6521 6.25669 18.9798C6.15234 21.3132 6.125 22.0592 6.125 28.0002C6.125 33.9413 6.15125 34.6846 6.25713 37.0177C6.36431 39.3466 6.73291 40.9362 7.27344 42.327C7.83256 43.766 8.58003 44.9864 9.79628 46.2022C11.0119 47.4191 12.2323 48.1683 13.6701 48.727C15.062 49.268 16.6519 49.6366 18.9803 49.7433C21.3137 49.8494 22.0588 49.8754 27.9993 49.8754C33.9408 49.8754 34.6841 49.8494 37.0173 49.7433C39.3461 49.6366 40.9375 49.268 42.3294 48.727C43.7677 48.1683 44.9864 47.4191 46.2017 46.2022C47.4187 44.9864 48.1659 43.766 48.7266 42.3277C49.2642 40.9362 49.6335 39.3461 49.7429 37.0182C49.8477 34.685 49.875 33.9413 49.875 28.0002C49.875 22.0592 49.8477 21.3137 49.7429 18.9803C49.6335 16.6515 49.2642 15.062 48.7266 13.6712C48.1659 12.2323 47.4187 11.0119 46.2017 9.79584C44.9851 8.57916 43.7682 7.83169 42.3281 7.27366C40.9336 6.73247 39.3431 6.36366 37.0142 6.25713C34.6808 6.15103 33.938 6.125 27.9952 6.125H28.002ZM26.0396 10.0671C26.6221 10.0662 27.272 10.0671 28.002 10.0671C33.8428 10.0671 34.5349 10.0881 36.8414 10.1929C38.9742 10.2904 40.1319 10.6468 40.903 10.9463C41.9239 11.3426 42.6517 11.8167 43.4168 12.5825C44.1825 13.3481 44.6563 14.0772 45.0538 15.0981C45.3532 15.8681 45.71 17.0258 45.8071 19.1586C45.9119 21.4646 45.9347 22.1572 45.9347 27.9952C45.9347 33.8332 45.9119 34.526 45.8071 36.8318C45.7096 38.9646 45.3532 40.1222 45.0538 40.8925C44.6574 41.9134 44.1825 42.6403 43.4168 43.4055C42.6512 44.1711 41.9243 44.6449 40.903 45.0415C40.1328 45.3423 38.9742 45.6978 36.8414 45.7953C34.5354 45.9001 33.8428 45.9228 28.002 45.9228C22.1609 45.9228 21.4686 45.9001 19.1627 45.7953C17.0299 45.6969 15.8723 45.3405 15.1005 45.0411C14.0798 44.6445 13.3505 44.1707 12.5849 43.405C11.8193 42.6394 11.3455 41.9121 10.948 40.8907C10.6485 40.1205 10.2918 38.9629 10.1946 36.8301C10.0898 34.524 10.0688 33.8314 10.0688 27.9897C10.0688 22.1482 10.0898 21.4592 10.1946 19.1531C10.2922 17.0203 10.6485 15.8627 10.948 15.0916C11.3446 14.0707 11.8193 13.3416 12.5851 12.5759C13.3508 11.8103 14.0798 11.3363 15.1007 10.939C15.8718 10.6382 17.0299 10.2828 19.1627 10.1848C21.1807 10.0936 21.9627 10.0662 26.0396 10.0616V10.0671ZM39.6788 13.6992C38.2296 13.6992 37.0538 14.8739 37.0538 16.3233C37.0538 17.7726 38.2296 18.9483 39.6788 18.9483C41.1281 18.9483 42.3038 17.7726 42.3038 16.3233C42.3038 14.8741 41.1281 13.6983 39.6788 13.6983V13.6992ZM28.002 16.7663C21.7982 16.7663 16.7683 21.7963 16.7683 28.0002C16.7683 34.2042 21.7982 39.2317 28.002 39.2317C34.2059 39.2317 39.2341 34.2042 39.2341 28.0002C39.2341 21.7965 34.2055 16.7663 28.0015 16.7663H28.002ZM28.002 20.7084C32.0289 20.7084 35.2938 23.9728 35.2938 28.0002C35.2938 32.0272 32.0289 35.292 28.002 35.292C23.9748 35.292 20.7104 32.0272 20.7104 28.0002C20.7104 23.9728 23.9748 20.7084 28.002 20.7084Z" fill="white"/>
</g>
</g>
<defs>
<radialGradient id="paint0_radial_79_178" cx="0" cy="0" r="1" gradientUnits="userSpaceOnUse" gradientTransform="translate(14.875 60.3131) rotate(-90) scale(55.5002 51.6195)">
<stop stop-color="#FFDD55"/>
<stop offset="0.1" stop-color="#FFDD55"/>
<stop offset="0.5" stop-color="#FF543E"/>
<stop offset="1" stop-color="#C837AB"/>
</radialGradient>
<radialGradient id="paint1_radial_79_178" cx="0" cy="0" r="1" gradientUnits="userSpaceOnUse" gradientTransform="translate(-9.38022 4.03397) rotate(78.681) scale(24.8089 102.263)">
<stop stop-color="#3771C8"/>
<stop offset="0.128" stop-color="#3771C8"/>
<stop offset="1" stop-color="#6600FF" stop-opacity="0"/>
</radialGradient>
<clipPath id="clip0_79_178">
<rect width="56" height="56" fill="white"/>
</clipPath>
<clipPath id="clip1_79_178">
<rect width="56" height="56" fill="white"/>
</clipPath>
</defs>
</svg>
