<svg width="42" height="42" viewBox="0 0 42 42" fill="none" xmlns="http://www.w3.org/2000/svg">
<path d="M2 36.5V33H40.5V36.5H2ZM7.25 31.25C6.2875 31.25 5.46383 30.9076 4.779 30.2228C4.09417 29.5379 3.75117 28.7137 3.75 27.75V8.5C3.75 7.5375 4.093 6.71383 4.779 6.029C5.465 5.34417 6.28867 5.00117 7.25 5H35.25C36.2125 5 37.0368 5.343 37.7228 6.029C38.4088 6.715 38.7512 7.53867 38.75 8.5V27.75C38.75 28.7125 38.4076 29.5368 37.7228 30.2228C37.0379 30.9088 36.2137 31.2512 35.25 31.25H7.25ZM7.25 27.75H35.25V8.5H7.25V27.75Z" fill="#BEB8F2"/>
</svg>
