<svg width="56" height="56" viewBox="0 0 56 56" fill="none" xmlns="http://www.w3.org/2000/svg">
<g clip-path="url(#clip0_79_201)">
<g clip-path="url(#clip1_79_201)">
<path d="M42.875 0H13.125C5.87626 0 0 5.87626 0 13.125V42.875C0 50.1237 5.87626 56 13.125 56H42.875C50.1237 56 56 50.1237 56 42.875V13.125C56 5.87626 50.1237 0 42.875 0Z" fill="white"/>
<path d="M42.875 0H13.125C5.87626 0 0 5.87626 0 13.125V42.875C0 50.1237 5.87626 56 13.125 56H42.875C50.1237 56 56 50.1237 56 42.875V13.125C56 5.87626 50.1237 0 42.875 0Z" fill="#0A66C2"/>
<path d="M40.4064 47.6186H46.8092C47.0412 47.6186 47.2638 47.5264 47.4279 47.3624C47.5919 47.1983 47.6842 46.9758 47.6842 46.7438L47.6875 33.2159C47.6875 26.1452 46.1639 20.7104 37.9011 20.7104C34.76 20.5936 31.7979 22.2127 30.1995 24.9165C30.1917 24.9296 30.1798 24.9398 30.1657 24.9456C30.1515 24.9513 30.1358 24.9523 30.1211 24.9483C30.1063 24.9443 30.0933 24.9356 30.084 24.9235C30.0746 24.9114 30.0695 24.8966 30.0694 24.8813V22.2381C30.0694 22.0061 29.9772 21.7835 29.8131 21.6194C29.649 21.4553 29.4264 21.3631 29.1944 21.3631H23.1182C22.8861 21.3631 22.6635 21.4553 22.4994 21.6194C22.3353 21.7835 22.2432 22.0061 22.2432 22.2381V46.7425C22.2432 46.9746 22.3353 47.1971 22.4994 47.3612C22.6635 47.5253 22.8861 47.6175 23.1182 47.6175H29.5205C29.7526 47.6175 29.9752 47.5253 30.1393 47.3612C30.3033 47.1971 30.3955 46.9746 30.3955 46.7425V34.6297C30.3955 31.2047 31.0452 27.8878 35.2914 27.8878C39.4772 27.8878 39.5314 31.8069 39.5314 34.8515V46.7436C39.5314 46.9757 39.6236 47.1982 39.7877 47.3623C39.9518 47.5264 40.1743 47.6186 40.4064 47.6186ZM8.3125 13.0436C8.3125 15.6389 10.449 17.7743 13.0445 17.7743C15.6393 17.7741 17.7745 15.6373 17.7745 13.0425C17.7741 10.4477 15.6387 8.3125 13.0436 8.3125C10.4479 8.3125 8.3125 10.4484 8.3125 13.0436ZM9.83478 47.6186H16.2457C16.4778 47.6186 16.7003 47.5264 16.8644 47.3623C17.0285 47.1982 17.1207 46.9757 17.1207 46.7436V22.2381C17.1207 22.0061 17.0285 21.7835 16.8644 21.6194C16.7003 21.4553 16.4778 21.3631 16.2457 21.3631H9.83478C9.60272 21.3631 9.38016 21.4553 9.21606 21.6194C9.05197 21.7835 8.95978 22.0061 8.95978 22.2381V46.7436C8.95978 46.9757 9.05197 47.1982 9.21606 47.3623C9.38016 47.5264 9.60272 47.6186 9.83478 47.6186Z" fill="white"/>
</g>
</g>
<defs>
<clipPath id="clip0_79_201">
<rect width="56" height="56" fill="white"/>
</clipPath>
<clipPath id="clip1_79_201">
<rect width="56" height="56" fill="white"/>
</clipPath>
</defs>
</svg>
