<svg width="42" height="42" viewBox="0 0 42 42" fill="none" xmlns="http://www.w3.org/2000/svg">
<path fill-rule="evenodd" clip-rule="evenodd" d="M11.2 6.9998C11.2 6.6285 11.3475 6.27241 11.61 6.00986C11.8726 5.7473 12.2287 5.5998 12.6 5.5998H29.4C29.7713 5.5998 30.1274 5.7473 30.3899 6.00986C30.6525 6.27241 30.8 6.6285 30.8 6.9998V34.9998C30.8 35.3711 30.6525 35.7272 30.3899 35.9898C30.1274 36.2523 29.7713 36.3998 29.4 36.3998H12.6C12.2287 36.3998 11.8726 36.2523 11.61 35.9898C11.3475 35.7272 11.2 35.3711 11.2 34.9998V6.9998ZM12.6 2.7998C11.4861 2.7998 10.4178 3.2423 9.63015 4.02996C8.84249 4.81761 8.39999 5.8859 8.39999 6.9998V34.9998C8.39999 36.1137 8.84249 37.182 9.63015 37.9697C10.4178 38.7573 11.4861 39.1998 12.6 39.1998H29.4C30.5139 39.1998 31.5822 38.7573 32.3698 37.9697C33.1575 37.182 33.6 36.1137 33.6 34.9998V6.9998C33.6 5.8859 33.1575 4.81761 32.3698 4.02996C31.5822 3.2423 30.5139 2.7998 29.4 2.7998H12.6ZM16.8 32.6198C16.5401 32.6198 16.2908 32.7231 16.107 32.9068C15.9232 33.0906 15.82 33.3399 15.82 33.5998C15.82 33.8597 15.9232 34.109 16.107 34.2928C16.2908 34.4766 16.5401 34.5798 16.8 34.5798H25.2C25.4599 34.5798 25.7092 34.4766 25.893 34.2928C26.0767 34.109 26.18 33.8597 26.18 33.5998C26.18 33.3399 26.0767 33.0906 25.893 32.9068C25.7092 32.7231 25.4599 32.6198 25.2 32.6198H16.8Z" fill="#BEB8F2"/>
</svg>
