<svg width="681" height="641" viewBox="0 0 681 641" fill="none" xmlns="http://www.w3.org/2000/svg">
<path d="M579.35 35.1149C604.929 71.3256 532.226 160.056 563.95 189.006C585.697 208.854 624.828 173.528 654.332 192.65C694.439 218.627 688.437 339.484 630.995 415.139C613.72 437.892 599.174 446.827 592.968 472.42C579.955 526.064 629.023 554.779 619.856 586.649C608.73 625.369 522.356 633.615 275.408 636.688C71.6643 639.222 49.0493 634.621 29.7136 613.893C-42.2049 536.803 26.5607 338.867 127.898 217.286C279.989 34.7943 541.332 -18.7092 579.35 35.1149Z" fill="#540096"/>
<path d="M399.317 469.228C403.777 492.424 389.426 510.946 377.134 522.758C375.031 522.248 373.665 522.528 371.414 522.516C351.099 522.413 342.704 517.808 322.878 514.376C318.61 513.647 306.933 507.416 302.335 504.543L293.855 499.036C293.855 499.036 289.968 444.352 319.314 436.809C348.66 429.267 351.274 376.456 355.931 348.458C368.562 272.488 447.401 299.281 471.447 202.954C477.843 177.335 481.472 126.338 508.151 111.299C538.546 94.1668 550.845 121.443 571.504 105.933C603.797 81.6933 646.649 80.7703 662.8 117.996C678.737 154.739 634.765 209.054 551.155 240.705C493.744 270.209 489.942 282.367 486.177 313.335C483.541 335.037 489.988 394.876 455.966 409.669C421.944 424.462 394.218 442.715 399.317 469.228Z" fill="url(#paint0_linear_36_200)"/>
<mask id="mask0_36_200" style="mask-type:luminance" maskUnits="userSpaceOnUse" x="294" y="88" width="373" height="449">
<path d="M360.468 536.694L294.96 501.263C294.96 501.263 289.968 444.352 319.312 436.809C348.655 429.267 351.272 376.456 355.931 348.458C368.562 272.49 447.399 299.281 471.444 202.954C477.84 177.335 481.469 126.338 508.148 111.299C538.544 94.1668 550.842 121.443 571.502 105.933C603.794 81.6933 646.646 80.7703 662.797 117.996C678.735 154.739 634.763 209.054 551.153 240.705C493.741 270.209 489.94 282.369 486.174 313.335C483.539 335.037 489.986 394.876 455.964 409.669C421.942 424.462 394.216 442.705 399.315 469.214C407.073 509.573 360.468 536.694 360.468 536.694Z" fill="white"/>
</mask>
<g mask="url(#mask0_36_200)">
<g style="mix-blend-mode:soft-light" opacity="0.5">
<path d="M332.823 517.682L331.445 517.15C334.603 508.942 337.899 500.7 341.227 492.66C365.868 433.117 395.175 378.032 428.337 328.938C456.437 287.332 487.688 249.433 521.224 216.29C548.187 189.636 576.783 165.901 606.194 145.744C626.871 131.573 647.732 119.303 668.214 109.276C671.783 107.529 675.528 105.941 679.145 104.406C683.974 102.358 688.966 100.242 693.574 97.7305L694.278 99.0276C689.607 101.573 684.582 103.704 679.721 105.764C676.116 107.291 672.387 108.873 668.855 110.602C648.451 120.598 627.638 132.831 607.02 146.961C577.684 167.069 549.164 190.748 522.244 217.34C488.778 250.414 457.589 288.24 429.545 329.764C396.438 378.783 367.177 433.78 342.583 493.243C339.267 501.254 335.98 509.481 332.823 517.682Z" fill="#FCFDFE"/>
<path d="M483.133 259.336L481.987 258.406C521.953 209.224 524.588 100.657 524.61 99.5667L526.087 99.5958C526.065 100.691 523.418 209.761 483.133 259.336Z" fill="#FCFDFE"/>
<path d="M383.392 406.717L382.145 405.925C405.397 369.324 487.782 357.1 488.611 356.974L488.822 358.432C487.999 358.553 406.274 370.686 383.392 406.717Z" fill="#FCFDFE"/>
<path d="M371.997 428.626L370.629 428.067C381.342 401.867 381.951 360.412 372.349 311.344C371.863 308.876 371.863 308.876 371.968 308.616L373.34 309.157L372.655 308.885H373.384C373.398 309.053 373.581 309.983 373.792 311.072C383.455 360.409 382.816 402.161 371.997 428.626Z" fill="#FCFDFE"/>
<path d="M338.805 502.781L337.656 501.856C357.22 477.579 403.461 477.565 403.927 477.582V479.056C403.461 479.054 357.935 479.064 338.805 502.781Z" fill="#FCFDFE"/>
<path d="M330.629 517.254C331.146 492.118 324.461 466.015 310.195 437.448L311.517 436.788C325.892 465.573 332.626 491.904 332.106 517.283L330.629 517.254Z" fill="#FCFDFE"/>
<path d="M589.914 159.109L588.821 158.115C612.566 132.01 631.459 99.0881 637.668 88.2592C639.172 85.6406 639.704 84.72 639.944 84.4309L641.076 85.3783C640.896 85.6017 640.036 87.0981 638.951 88.9952C632.708 99.8509 613.753 132.884 589.914 159.109Z" fill="#FCFDFE"/>
<path d="M545.017 195.844L544.264 194.574C572.753 177.735 636.796 194.426 639.509 195.142L639.13 196.571C638.472 196.396 572.974 179.321 545.017 195.844Z" fill="#FCFDFE"/>
</g>
</g>
<mask id="mask1_36_200" style="mask-type:luminance" maskUnits="userSpaceOnUse" x="322" y="239" width="344" height="341">
<path d="M326.002 544.256L384.344 579.821C384.344 579.821 413.568 556.586 412.147 526.749C409.245 465.876 462.763 467.581 485.285 464.943C519.254 460.964 547.449 442.644 520.507 410.774C493.566 378.904 559.487 347.202 615.269 348.684C669.856 350.141 703.932 253.934 586.071 239.952C515.686 231.601 488.742 295.197 467.5 324.077C446.257 352.957 399.361 327.823 392.185 374.539C386.044 414.444 397.094 452.999 364.53 463.165C331.965 473.331 315.017 496.641 326.002 544.256Z" fill="white"/>
</mask>
<g mask="url(#mask1_36_200)">
<path d="M326.002 544.256L384.344 579.82C384.344 579.82 413.568 556.586 412.147 526.749C409.245 465.876 462.763 467.581 485.285 464.943C519.254 460.964 543.56 443.89 525.101 411.947C504.211 375.809 559.487 347.192 615.269 348.674C669.856 350.131 703.932 253.924 586.071 239.942C515.686 231.591 488.742 295.187 467.5 324.067C446.257 352.947 399.361 327.822 392.185 374.539C386.044 414.444 397.094 452.999 364.53 463.165C331.965 473.331 315.017 496.641 326.002 544.256Z" fill="url(#paint1_linear_36_200)"/>
<g style="mix-blend-mode:soft-light" opacity="0.5">
<path d="M347.951 565.064L349.297 565.579C349.617 564.745 381.941 481.342 438.918 408.325C491.407 341.056 576.163 269.094 681.887 308.27L682.388 306.92C635.326 289.479 588.437 292.231 543.02 315.099C506.742 333.366 471.328 364.441 437.762 407.461C380.661 480.647 348.271 564.228 347.951 565.064Z" fill="#BEB8F2"/>
<path d="M524.455 325.471L525.771 326.064C545.503 282.296 596.215 233.959 596.735 233.476L595.744 232.436C595.232 232.922 544.303 281.451 524.455 325.471Z" fill="#BEB8F2"/>
<path d="M555.134 311.067C612.342 310.508 643.522 346.517 643.831 346.879L644.931 345.949C644.618 345.577 613.03 309.06 555.12 309.624L555.134 311.067Z" fill="#BEB8F2"/>
<path d="M404.27 458.101C453.437 408.428 541.096 442.328 541.925 442.729L542.636 441.478C541.864 441.007 452.849 406.97 403.244 457.085L404.27 458.101Z" fill="#BEB8F2"/>
<path d="M418.888 433.253L420.248 433.739C435.221 391.727 410.415 341.432 410.163 340.917L408.875 341.564C409.123 342.059 433.655 391.829 418.888 433.253Z" fill="#BEB8F2"/>
<path d="M354.672 552.568C370.218 531.049 413.405 532.822 413.838 532.841L413.906 531.401C412.101 531.316 369.516 529.569 353.504 551.723L354.672 552.568Z" fill="#BEB8F2"/>
<path d="M362.064 532.715L363.405 533.247C371.158 513.737 356.45 477.771 351.616 465.961C350.934 464.29 350.343 462.849 350.288 462.572L348.869 462.83C348.939 463.221 349.33 464.18 350.28 466.507C355.058 478.184 369.594 513.746 362.064 532.715Z" fill="#BEB8F2"/>
</g>
</g>
<path d="M429.047 598.26L428.204 598.423C411.53 601.581 392.739 602.11 371.771 598.292L359.659 595.194C358.379 584.788 359.025 574.661 372.232 573.636C392.741 572.043 400.541 538.263 397.855 525.137C394.529 508.888 387.565 470.892 419.231 467.931C445.594 465.468 463.11 469.265 471.714 437.868C480.318 406.472 501.949 390.406 530.353 398.531C560.243 407.082 593.84 372.103 615.758 390.979C653.95 423.869 599.585 485.394 542.557 494.284C485.528 503.175 511.617 528.676 507.41 554.983C501.667 590.897 455.322 572.927 439.638 584.132C434.316 587.927 431.051 592.974 429.047 598.26Z" fill="url(#paint2_linear_36_200)"/>
<mask id="mask2_36_200" style="mask-type:luminance" maskUnits="userSpaceOnUse" x="359" y="385" width="270" height="234">
<path d="M426.212 618.128L360.259 603.31C358.515 593.108 357.48 574.785 372.232 573.641C392.741 572.047 400.541 538.268 397.855 525.141C394.529 508.893 387.565 470.897 419.231 467.936C445.594 465.473 463.11 469.27 471.714 437.873C480.318 406.477 501.949 390.411 530.353 398.536C560.243 407.087 593.84 372.108 615.758 390.984C653.951 423.874 599.585 485.399 542.557 494.289C485.528 503.18 511.617 528.681 507.41 554.988C501.665 590.902 455.322 572.932 439.638 584.137C427.329 592.916 425.908 608.397 426.212 618.128Z" fill="white"/>
</mask>
<g mask="url(#mask2_36_200)">
<g style="mix-blend-mode:soft-light" opacity="0.5">
<path d="M397.49 600.777L396.149 600.186C439.363 502.203 529.92 425.674 632.48 400.463L632.829 401.886C530.702 426.991 440.524 503.202 397.49 600.777Z" fill="#FCFDFE"/>
<path d="M425.626 549.374L424.196 549.061C433.239 507.958 405.103 468.172 404.819 467.778L406.009 466.923C406.298 467.331 434.813 507.625 425.626 549.374Z" fill="#FCFDFE"/>
<path d="M405.931 582.969L404.821 582.012C432.678 549.692 509.533 561.163 510.308 561.284L510.082 562.741C509.319 562.613 433.256 551.264 405.931 582.969Z" fill="#FCFDFE"/>
<path d="M496.027 471.521L494.839 470.664C514.668 443.232 505.143 392.204 505.041 391.696L506.479 391.419C506.581 391.939 516.222 443.582 496.027 471.521Z" fill="#FCFDFE"/>
<path d="M552.28 433.294L551.794 431.912C588.231 419.249 635.528 441.082 636.004 441.306L635.382 442.632C634.918 442.411 588.143 420.831 552.28 433.294Z" fill="#FCFDFE"/>
</g>
</g>
<path opacity="0.75" d="M94.8138 194.467C94.8138 87.0665 186.25 0 299.046 0C411.841 0 503.278 87.0665 503.278 194.467C503.278 259.645 469.598 317.334 417.909 352.616C395.979 367.585 382.687 392.257 382.687 418.81V433.69C382.687 466.027 356.475 492.232 324.146 492.232H273.958C241.624 492.232 215.417 466.022 215.417 433.69V418.81C215.417 392.257 202.117 367.585 180.194 352.616C128.493 317.334 94.8138 259.642 94.8138 194.467Z" fill="#540096"/>
<path d="M299.046 602.929C324.067 602.929 344.351 592.19 344.351 578.943C344.351 565.697 324.067 554.958 299.046 554.958C274.024 554.958 253.74 565.697 253.74 578.943C253.74 592.19 274.024 602.929 299.046 602.929Z" fill="url(#paint3_linear_36_200)"/>
<path d="M359.239 536.097V560.59C359.249 564.652 358.109 568.634 355.951 572.076C353.792 575.517 350.704 578.277 347.043 580.037C336.658 584.99 319.392 590.424 294.302 589.783C273.943 589.26 260.671 585.935 252.232 582.444C244.078 579.07 238.853 571.008 238.853 562.183V548.631L359.239 536.097Z" fill="url(#paint4_linear_36_200)"/>
<path style="mix-blend-mode:multiply" opacity="0.3" d="M359.239 557.551C357.38 559.366 355.235 560.864 352.892 561.986C341.232 567.541 264.934 579.961 246.526 573.038C244.22 572.181 242.055 570.985 240.101 569.49C239.278 567.141 238.856 564.671 238.853 562.183V548.631L359.239 536.094V557.551Z" fill="url(#paint5_linear_36_200)"/>
<path d="M353.895 519.43C355.496 519.264 357.113 519.435 358.644 519.934C360.174 520.432 361.582 521.246 362.778 522.324C363.973 523.401 364.929 524.718 365.583 526.188C366.237 527.659 366.575 529.25 366.575 530.859V531.552C366.587 536.109 365.308 540.577 362.886 544.438C360.465 548.299 357 551.396 352.892 553.37C341.232 558.925 264.934 571.345 246.526 564.425C237.259 560.941 231.517 552.986 231.517 543.088V542.529C231.517 539.687 232.57 536.947 234.472 534.836C236.375 532.725 238.992 531.394 241.818 531.1L353.895 519.43Z" fill="url(#paint6_linear_36_200)"/>
<path style="mix-blend-mode:multiply" opacity="0.3" d="M241.823 531.1L353.9 519.44C355.981 519.224 358.081 519.58 359.973 520.472C361.866 521.363 363.479 522.756 364.637 524.498C362.36 529.899 358.183 534.279 352.897 536.811C341.237 542.366 261.689 556.399 246.531 549.258C240.631 546.476 236.003 541.783 233.523 536.077C234.46 534.693 235.689 533.53 237.123 532.67C238.556 531.811 240.161 531.275 241.823 531.1Z" fill="url(#paint7_linear_36_200)"/>
<path d="M358.279 479.746C360.48 479.746 362.59 480.62 364.145 482.176C365.701 483.731 366.575 485.841 366.575 488.041V507.231C366.587 511.789 365.308 516.257 362.886 520.118C360.465 523.979 357 527.076 352.892 529.05C341.232 534.605 261.684 548.638 246.526 541.496C237.572 537.277 231.517 528.666 231.517 518.767V488.041C231.517 486.952 231.731 485.873 232.148 484.867C232.565 483.861 233.176 482.946 233.946 482.176C234.716 481.405 235.631 480.794 236.637 480.378C237.644 479.961 238.723 479.746 239.812 479.746H358.279Z" fill="url(#paint8_linear_36_200)"/>
<path d="M233.188 485.717C233.188 494.318 262.672 501.288 299.046 501.288C335.419 501.288 364.904 494.318 364.904 485.717C364.904 477.116 335.419 470.146 299.046 470.146C262.672 470.146 233.188 477.118 233.188 485.717Z" fill="url(#paint9_linear_36_200)"/>
<path d="M94.8138 194.467C94.8138 87.0665 186.25 0 299.046 0C411.841 0 503.278 87.0665 503.278 194.467C503.278 259.645 469.598 317.334 417.909 352.616C395.979 367.585 382.687 392.257 382.687 418.81V433.69C382.687 466.027 356.475 492.232 324.146 492.232H273.958C241.624 492.232 215.417 466.022 215.417 433.69V418.81C215.417 392.257 202.117 367.585 180.194 352.616C128.493 317.334 94.8138 259.642 94.8138 194.467Z" fill="url(#paint10_linear_36_200)"/>
<g style="mix-blend-mode:soft-light" opacity="0.5">
<path d="M299.046 484.833C325.661 484.833 347.237 479.732 347.237 473.44C347.237 467.148 325.661 462.048 299.046 462.048C272.431 462.048 250.855 467.148 250.855 473.44C250.855 479.732 272.431 484.833 299.046 484.833Z" fill="#540096"/>
</g>
<path d="M311.604 480.402C312.28 480.401 312.933 480.154 313.441 479.707C313.949 479.26 314.276 478.644 314.364 477.973L349.814 202.269C349.861 201.907 349.835 201.538 349.74 201.185C349.644 200.833 349.479 200.502 349.256 200.213C349.032 199.923 348.754 199.681 348.437 199.499C348.119 199.317 347.77 199.199 347.407 199.153C347.044 199.106 346.676 199.132 346.323 199.227C345.97 199.323 345.639 199.487 345.35 199.711C345.061 199.935 344.818 200.213 344.636 200.53C344.454 200.847 344.337 201.197 344.29 201.56L308.837 477.264C308.744 477.996 308.945 478.736 309.396 479.32C309.848 479.904 310.512 480.286 311.245 480.38C311.364 480.395 311.484 480.402 311.604 480.402Z" fill="url(#paint11_linear_36_200)"/>
<path d="M289.585 480.402C289.704 480.402 289.823 480.395 289.942 480.38C290.304 480.334 290.654 480.216 290.972 480.034C291.289 479.853 291.567 479.61 291.791 479.321C292.015 479.031 292.179 478.701 292.275 478.348C292.37 477.995 292.396 477.626 292.349 477.264L256.899 201.56C256.793 200.837 256.408 200.184 255.826 199.743C255.244 199.301 254.512 199.105 253.787 199.198C253.062 199.291 252.403 199.665 251.951 200.24C251.5 200.814 251.292 201.543 251.372 202.269L286.837 477.973C286.924 478.642 287.25 479.257 287.755 479.703C288.26 480.15 288.91 480.398 289.585 480.402Z" fill="url(#paint12_linear_36_200)"/>
<path d="M260.712 202.048C261.173 202.049 261.627 201.935 262.034 201.717C262.44 201.499 262.785 201.183 263.039 200.797L272.824 185.953C272.863 185.883 272.921 185.825 272.992 185.786C273.062 185.747 273.141 185.727 273.222 185.73C273.301 185.732 273.378 185.756 273.444 185.799C273.51 185.841 273.564 185.902 273.598 185.973L280.06 196.792C280.58 197.668 281.314 198.397 282.194 198.912C283.073 199.426 284.069 199.709 285.088 199.733C286.106 199.758 287.114 199.523 288.017 199.051C288.92 198.579 289.689 197.885 290.25 197.035L299.119 183.735C299.158 183.669 299.215 183.614 299.282 183.576C299.349 183.537 299.425 183.517 299.502 183.517C299.576 183.519 299.648 183.538 299.712 183.573C299.777 183.608 299.832 183.658 299.874 183.718L307.667 194.982C308.218 195.783 308.955 196.438 309.814 196.891C310.674 197.345 311.631 197.583 312.603 197.586C313.575 197.585 314.532 197.348 315.393 196.897C316.254 196.445 316.994 195.793 317.548 194.994L328.785 178.899C328.831 178.836 328.89 178.784 328.959 178.747C329.027 178.71 329.103 178.69 329.181 178.688C329.26 178.691 329.336 178.715 329.402 178.758C329.467 178.801 329.521 178.86 329.555 178.931L339.809 196.632C339.987 196.958 340.228 197.246 340.519 197.478C340.81 197.71 341.145 197.881 341.503 197.981C341.861 198.082 342.236 198.109 342.605 198.063C342.975 198.016 343.331 197.896 343.652 197.709C343.974 197.522 344.256 197.273 344.48 196.976C344.704 196.679 344.866 196.34 344.957 195.979C345.048 195.619 345.066 195.243 345.009 194.875C344.953 194.508 344.823 194.155 344.628 193.838L334.375 176.137C333.869 175.257 333.149 174.519 332.282 173.993C331.414 173.466 330.427 173.168 329.413 173.126C328.399 173.083 327.391 173.299 326.483 173.751C325.574 174.204 324.795 174.879 324.219 175.715L312.996 191.805C312.956 191.869 312.9 191.923 312.834 191.96C312.768 191.997 312.693 192.016 312.617 192.016C312.544 192.015 312.471 191.996 312.407 191.961C312.342 191.925 312.288 191.874 312.248 191.812L304.455 180.548C303.897 179.739 303.149 179.079 302.276 178.626C301.403 178.174 300.433 177.942 299.45 177.951C298.467 177.961 297.501 178.212 296.637 178.681C295.774 179.151 295.038 179.826 294.496 180.646L285.627 193.943C285.528 194.091 285.384 194.217 285.231 194.161C285.152 194.159 285.075 194.136 285.009 194.093C284.942 194.05 284.889 193.99 284.855 193.918L278.394 183.099C277.872 182.221 277.136 181.49 276.255 180.975C275.373 180.461 274.374 180.179 273.354 180.157C272.333 180.135 271.323 180.373 270.42 180.849C269.517 181.325 268.75 182.023 268.191 182.878L258.407 197.722C258.13 198.142 257.972 198.628 257.95 199.13C257.927 199.633 258.041 200.131 258.279 200.574C258.517 201.016 258.871 201.386 259.302 201.644C259.733 201.902 260.226 202.038 260.729 202.039L260.712 202.048Z" fill="url(#paint13_linear_36_200)"/>
<path style="mix-blend-mode:multiply" opacity="0.3" d="M295.339 347.855C290.967 272.903 164.607 255.36 165.139 188.423C165.472 147.197 215.684 116.578 226.403 110.449C305.41 65.2677 402.655 117.442 422.736 80.5127C427.738 71.3161 425.393 61.3082 424.057 55.6071C422.039 46.9911 417.47 38.9677 410.697 31.6294C466.438 66.3511 503.273 126.311 503.273 194.469C503.273 259.647 469.593 317.336 417.904 352.619C395.975 367.589 382.682 392.262 382.682 418.812V433.693C382.682 466.029 356.47 492.234 324.141 492.234H273.958C241.624 492.234 215.417 466.024 215.417 433.693V421.79C222.323 427.083 230.254 430.778 238.95 430.703C269.124 430.457 297.516 385.154 295.339 347.855Z" fill="url(#paint14_linear_36_200)"/>
<g style="mix-blend-mode:soft-light" opacity="0.44">
<path d="M295.779 371.537C392.84 371.537 471.525 295.654 471.525 202.048C471.525 108.442 392.84 32.5598 295.779 32.5598C198.717 32.5598 120.033 108.442 120.033 202.048C120.033 295.654 198.717 371.537 295.779 371.537Z" fill="#540096"/>
</g>
<mask id="mask3_36_200" style="mask-type:luminance" maskUnits="userSpaceOnUse" x="94" y="0" width="295" height="354">
<path d="M94.8138 194.467C94.8138 87.0665 186.25 0 299.046 0C330.986 0 361.212 6.98854 388.136 19.4329C389.428 36.0018 387.419 49.5951 384.322 60.5382C367.598 119.648 314.621 119.218 271.711 197.069C238.469 257.376 255.142 285.063 220.887 323.625C209.431 336.521 196.081 346.342 181.924 353.836C181.348 353.42 180.77 353.008 180.182 352.607C128.491 317.334 94.8138 259.642 94.8138 194.467Z" fill="white"/>
</mask>
<g mask="url(#mask3_36_200)">
<path d="M94.8138 194.467C94.8138 87.0665 186.25 0 299.046 0C411.841 0 503.278 87.0665 503.278 194.467C503.278 259.645 469.598 317.334 417.909 352.616C395.979 367.585 382.687 392.257 382.687 418.81V433.69C382.687 466.027 356.475 492.232 324.146 492.232H273.958C241.624 492.232 215.417 466.022 215.417 433.69V418.81C215.417 392.257 202.117 367.585 180.194 352.616C128.493 317.334 94.8138 259.642 94.8138 194.467Z" fill="#82E9FF"/>
<path style="mix-blend-mode:multiply" opacity="0.3" d="M388.136 19.4353C368.681 19.1778 341.932 22.1729 322.868 40.2794C299.038 62.909 309.967 87.5474 293.636 120.668C266.158 176.392 210.774 156.252 172.718 213.681C138.108 265.907 150.963 332.299 165.411 342.57C166.708 343.49 181.929 353.846 181.929 353.846L407.245 256.863L388.136 19.4353Z" fill="url(#paint15_linear_36_200)"/>
<path d="M299.046 381.739C246.577 381.739 197.232 362.272 160.123 326.924C123.013 291.575 102.553 244.548 102.553 194.538C102.553 144.527 122.996 97.5117 160.123 62.1512C197.249 26.7906 246.57 7.33594 299.046 7.33594C351.522 7.33594 400.859 26.8028 437.969 62.156C475.078 97.5092 495.539 144.532 495.539 194.542C495.539 244.553 475.095 291.571 437.969 326.929C400.842 362.287 351.522 381.739 299.046 381.739ZM299.046 9.02417C247.005 9.02417 198.082 28.3259 161.286 63.3754C124.49 98.425 104.246 144.993 104.246 194.547C104.246 244.101 124.502 290.674 161.286 325.719C198.07 360.764 247.005 380.068 299.046 380.068C351.087 380.068 400.012 360.766 436.805 325.719C473.599 290.672 493.846 244.101 493.846 194.547C493.846 144.993 473.589 98.4226 436.805 63.3754C400.021 28.3283 351.087 9.02417 299.046 9.02417Z" fill="#6E6E6E"/>
<path d="M299.046 381.739C219.614 381.739 155 297.76 155 194.538C155 91.315 219.614 7.33594 299.046 7.33594C378.478 7.33594 443.092 91.315 443.092 194.538C443.092 297.76 378.47 381.739 299.046 381.739ZM299.046 9.02417C220.552 9.02417 156.7 92.2454 156.7 194.538C156.7 296.83 220.559 380.051 299.046 380.051C377.533 380.051 441.392 296.83 441.392 194.538C441.392 92.2454 377.54 9.02417 299.046 9.02417Z" fill="#6E6E6E"/>
<path d="M299.046 381.739C279.547 381.739 261.288 362.163 247.629 326.615C234.07 291.323 226.603 244.417 226.603 194.538C226.603 144.658 234.07 97.7546 247.629 62.4597C261.288 26.9121 279.547 7.33594 299.046 7.33594C318.544 7.33594 336.801 26.9121 350.463 62.4597C364.022 97.7522 371.489 144.658 371.489 194.538C371.489 244.417 364.022 291.323 350.463 326.615C336.801 362.163 318.544 381.739 299.046 381.739ZM299.046 9.02417C260.032 9.02417 228.291 92.2454 228.291 194.538C228.291 296.83 260.032 380.051 299.046 380.051C338.06 380.051 369.801 296.83 369.801 194.538C369.801 92.2454 338.06 9.02417 299.046 9.02417Z" fill="#6E6E6E"/>
<path d="M299.889 8.1814H298.201V380.896H299.889V8.1814Z" fill="#6E6E6E"/>
<path d="M299.046 216.329C246.764 216.329 197.609 214.607 160.633 211.471C142.633 209.95 128.496 208.177 118.609 206.2C104.382 203.353 102.558 200.819 102.558 198.929C102.558 197.039 104.382 194.506 118.609 191.661C128.496 189.684 142.633 187.911 160.633 186.388C197.609 183.261 246.764 181.53 299.046 181.53C351.328 181.53 400.483 183.252 437.459 186.388C455.458 187.911 469.596 189.684 479.482 191.661C493.71 194.506 495.534 197.039 495.534 198.929C495.534 200.819 493.71 203.353 479.482 206.2C469.596 208.177 455.458 209.95 437.459 211.471C400.483 214.607 351.328 216.329 299.046 216.329ZM299.046 183.235C246.82 183.235 197.706 184.955 160.776 188.078C106.971 192.628 104.246 197.921 104.246 198.937C104.246 199.952 106.971 205.252 160.776 209.797C197.699 212.921 246.81 214.641 299.046 214.641C351.281 214.641 400.386 212.921 437.316 209.797C491.12 205.245 493.846 199.952 493.846 198.937C493.846 197.921 491.12 192.621 437.316 188.078C400.386 184.955 351.281 183.235 299.046 183.235Z" fill="#6E6E6E"/>
<path d="M299.046 145.785C250.801 145.785 205.44 143.521 171.318 139.409C146.862 136.462 117.711 131.257 117.711 123.194C117.711 115.132 146.86 109.927 171.318 106.978C205.44 102.868 250.801 100.604 299.046 100.604C347.29 100.604 392.649 102.868 426.773 106.978C451.229 109.927 480.381 115.13 480.381 123.194C480.381 131.259 451.232 136.462 426.773 139.409C392.651 143.531 347.29 145.785 299.046 145.785ZM299.046 102.304C250.867 102.304 205.579 104.563 171.518 108.668C123.157 114.498 119.396 121.268 119.396 123.207C119.396 125.145 123.157 131.917 171.518 137.745C205.576 141.848 250.864 144.107 299.046 144.107C347.227 144.107 392.513 141.848 426.574 137.745C474.935 131.915 478.695 125.143 478.695 123.207C478.695 121.271 474.935 114.493 426.574 108.668C392.513 104.551 347.225 102.292 299.046 102.292V102.304Z" fill="#6E6E6E"/>
<path d="M299.59 58.1746C246.619 58.1746 191.825 51.548 191.825 40.4591C191.825 29.3703 246.619 22.7437 299.59 22.7437C352.562 22.7437 407.357 29.3703 407.357 40.4591C407.357 51.548 352.564 58.1746 299.59 58.1746ZM299.59 24.4319C236.137 24.4319 193.513 32.7176 193.513 40.464C193.513 48.2104 236.137 56.4961 299.59 56.4961C363.043 56.4961 405.669 48.2104 405.669 40.464C405.669 32.7176 363.036 24.4319 299.59 24.4319Z" fill="#6E6E6E"/>
<path d="M299.046 287.092C250.801 287.092 205.44 284.825 171.318 280.715C146.862 277.769 117.711 272.563 117.711 264.501C117.711 256.439 146.86 251.231 171.318 248.287C205.44 244.162 250.811 241.91 299.046 241.91C347.281 241.91 392.651 244.174 426.773 248.287C451.229 251.231 480.381 256.436 480.381 264.501C480.381 272.565 451.232 277.769 426.773 280.715C392.649 284.813 347.288 287.092 299.046 287.092ZM299.046 243.611C250.867 243.611 205.579 245.87 171.518 249.975C123.159 255.775 119.396 262.558 119.396 264.501C119.396 266.444 123.157 273.212 171.518 279.039C205.576 283.142 250.864 285.401 299.046 285.401C347.227 285.401 392.513 283.142 426.574 279.039C474.935 273.209 478.695 266.437 478.695 264.501C478.695 262.565 474.935 255.788 426.574 249.963C392.513 245.845 347.225 243.586 299.046 243.586V243.611Z" fill="#6E6E6E"/>
<path d="M299.59 364.939C246.619 364.939 191.825 358.313 191.825 347.224C191.825 336.135 246.619 329.509 299.59 329.509C352.562 329.509 407.357 336.135 407.357 347.224C407.357 358.313 352.564 364.939 299.59 364.939ZM299.59 331.197C236.137 331.197 193.513 339.482 193.513 347.229C193.513 354.975 236.137 363.261 299.59 363.261C363.043 363.261 405.669 354.975 405.669 347.229C405.669 339.482 363.036 331.197 299.59 331.197Z" fill="#6E6E6E"/>
<path d="M155.104 136.778C155.104 138.257 155.543 139.702 156.364 140.931C157.185 142.16 158.353 143.118 159.718 143.684C161.084 144.249 162.587 144.397 164.037 144.109C165.487 143.821 166.819 143.109 167.864 142.063C168.909 141.018 169.621 139.686 169.909 138.236C170.198 136.787 170.05 135.284 169.484 133.918C168.918 132.552 167.96 131.385 166.731 130.564C165.502 129.742 164.057 129.304 162.579 129.304C161.597 129.304 160.625 129.497 159.718 129.872C158.811 130.248 157.987 130.798 157.293 131.492C156.599 132.187 156.048 133.011 155.673 133.918C155.297 134.825 155.104 135.797 155.104 136.778Z" fill="#6E6E6E"/>
<path d="M231.396 151.157C235.462 150.441 238.177 146.565 237.461 142.5C236.745 138.434 232.869 135.719 228.803 136.435C224.738 137.151 222.023 141.028 222.739 145.093C223.455 149.158 227.331 151.873 231.396 151.157Z" fill="#6E6E6E"/>
<path d="M159.657 216.737C163.635 215.635 165.967 211.517 164.865 207.539C163.764 203.561 159.646 201.229 155.667 202.331C151.689 203.433 149.357 207.551 150.459 211.529C151.561 215.507 155.679 217.839 159.657 216.737Z" fill="#6E6E6E"/>
<path d="M227.861 221.238C231.989 221.238 235.335 217.892 235.335 213.764C235.335 209.636 231.989 206.289 227.861 206.289C223.733 206.289 220.387 209.636 220.387 213.764C220.387 217.892 223.733 221.238 227.861 221.238Z" fill="#6E6E6E"/>
<path d="M125.682 124.703C127.529 121.011 126.032 116.521 122.34 114.675C118.648 112.828 114.159 114.324 112.312 118.016C110.466 121.708 111.962 126.198 115.654 128.045C119.346 129.891 123.836 128.395 125.682 124.703Z" fill="#6E6E6E"/>
<path d="M105.127 206.525C109.212 205.926 112.037 202.129 111.437 198.045C110.838 193.96 107.041 191.135 102.957 191.735C98.8723 192.334 96.0473 196.131 96.6468 200.215C97.2463 204.3 101.043 207.125 105.127 206.525Z" fill="#6E6E6E"/>
<path d="M291.571 144.746C291.571 146.224 292.01 147.669 292.831 148.898C293.652 150.127 294.82 151.085 296.186 151.651C297.551 152.217 299.054 152.365 300.504 152.076C301.954 151.788 303.286 151.076 304.331 150.031C305.376 148.985 306.088 147.654 306.377 146.204C306.665 144.754 306.517 143.251 305.951 141.885C305.386 140.52 304.428 139.352 303.198 138.531C301.969 137.71 300.524 137.271 299.046 137.271C297.064 137.271 295.162 138.059 293.761 139.46C292.359 140.862 291.571 142.763 291.571 144.746Z" fill="#6E6E6E"/>
<path d="M291.571 57.0547C291.571 58.533 292.01 59.9781 292.831 61.2072C293.652 62.4364 294.82 63.3944 296.186 63.9601C297.551 64.5258 299.054 64.6738 300.504 64.3854C301.954 64.097 303.286 63.3852 304.331 62.3399C305.376 61.2946 306.088 59.9628 306.377 58.5129C306.665 57.063 306.517 55.5601 305.951 54.1944C305.386 52.8286 304.428 51.6613 303.198 50.84C301.969 50.0187 300.524 49.5803 299.046 49.5803C297.064 49.5803 295.162 50.3678 293.761 51.7695C292.359 53.1712 291.571 55.0724 291.571 57.0547Z" fill="#6E6E6E"/>
<path d="M243.876 55.0605C243.877 56.5386 244.316 57.9832 245.138 59.2117C245.96 60.4402 247.128 61.3975 248.493 61.9625C249.859 62.5274 251.362 62.6748 252.811 62.3858C254.261 62.0969 255.592 61.3846 256.637 60.3391C257.682 59.2936 258.393 57.9618 258.681 56.512C258.969 55.0623 258.821 53.5597 258.255 52.1942C257.689 50.8288 256.731 49.6617 255.502 48.8406C254.273 48.0195 252.828 47.5813 251.35 47.5813C250.368 47.5813 249.396 47.7748 248.489 48.1507C247.582 48.5266 246.758 49.0776 246.063 49.7722C245.369 50.4668 244.819 51.2913 244.443 52.1987C244.068 53.1061 243.875 54.0786 243.876 55.0605Z" fill="#6E6E6E"/>
<path d="M203.281 49.4128C203.281 50.8911 203.719 52.3362 204.54 53.5654C205.362 54.7945 206.529 55.7525 207.895 56.3182C209.261 56.884 210.763 57.032 212.213 56.7436C213.663 56.4552 214.995 55.7433 216.04 54.698C217.086 53.6527 217.797 52.3209 218.086 50.871C218.374 49.4211 218.226 47.9183 217.661 46.5525C217.095 45.1868 216.137 44.0194 214.908 43.1981C213.678 42.3768 212.233 41.9385 210.755 41.9385C209.773 41.9382 208.801 42.1313 207.894 42.5068C206.987 42.8823 206.163 43.4328 205.469 44.127C204.775 44.8211 204.225 45.6452 203.849 46.5521C203.474 47.4591 203.28 48.4312 203.281 49.4128Z" fill="#6E6E6E"/>
<path d="M198.103 44.3862C201.022 41.4673 201.022 36.7348 198.103 33.8159C195.184 30.897 190.451 30.897 187.532 33.8159C184.613 36.7348 184.613 41.4673 187.532 44.3863C190.451 47.3052 195.184 47.3052 198.103 44.3862Z" fill="#6E6E6E"/>
<path d="M291.571 8.22974C291.571 9.70803 292.01 11.1531 292.831 12.3823C293.652 13.6114 294.82 14.5694 296.186 15.1352C297.551 15.7009 299.054 15.8489 300.504 15.5605C301.954 15.2721 303.286 14.5602 304.331 13.5149C305.376 12.4696 306.088 11.1378 306.377 9.68791C306.665 8.23803 306.517 6.73519 305.951 5.36943C305.386 4.00367 304.428 2.83633 303.198 2.01504C301.969 1.19375 300.524 0.755371 299.046 0.755371C297.064 0.755371 295.162 1.54285 293.761 2.94456C292.359 4.34628 291.571 6.24741 291.571 8.22974Z" fill="#6E6E6E"/>
<path d="M239.659 291.997C243.351 290.151 244.848 285.662 243.002 281.969C241.156 278.277 236.667 276.78 232.975 278.626C229.282 280.471 227.785 284.961 229.631 288.653C231.477 292.346 235.966 293.843 239.659 291.997Z" fill="#6E6E6E"/>
<path d="M172.926 285.916C176.944 284.967 179.432 280.942 178.484 276.924C177.536 272.907 173.51 270.418 169.492 271.367C165.475 272.315 162.987 276.34 163.935 280.358C164.883 284.376 168.909 286.864 172.926 285.916Z" fill="#6E6E6E"/>
<path d="M120.033 273.474C124.161 273.474 127.507 270.127 127.507 265.999C127.507 261.871 124.161 258.525 120.033 258.525C115.905 258.525 112.558 261.871 112.558 265.999C112.558 270.127 115.905 273.474 120.033 273.474Z" fill="#6E6E6E"/>
</g>
<path d="M145.895 627.181C145.895 627.181 145.283 632.059 145.694 633.691C146.104 635.323 160.268 636.504 165.093 635.938C169.917 635.372 162.229 630.453 159.161 629.532C156.093 628.612 145.895 627.181 145.895 627.181Z" fill="url(#paint16_linear_36_200)"/>
<path d="M153.032 619.048L151.538 628.83C151.538 628.83 147.727 630.543 145.895 628.85L145.694 618.611L153.032 619.048Z" fill="url(#paint17_linear_36_200)"/>
<path d="M73.1194 618.611C73.1194 618.611 76.1266 620.843 75.325 623.518C74.5234 626.192 67.5057 636.9 62.5042 639.941C57.5026 642.982 59.0694 636.647 60.5245 632.702C61.9795 628.757 65.7009 620.071 67.1511 618.613C68.6012 617.156 73.1194 618.611 73.1194 618.611Z" fill="url(#paint18_linear_36_200)"/>
<path d="M78.5291 607.865C77.0716 611.919 75.6773 615.249 74.5842 617.707C72.1551 623.144 70.8409 625.184 69.3422 626.955C68.0378 628.495 64.9431 631.782 64.1123 631.235C63.2816 630.689 65.5309 626.683 69.8912 614.977C70.5252 613.277 72.5267 607.865 72.5267 607.865H78.5291Z" fill="url(#paint19_linear_36_200)"/>
<path d="M182.718 438.517C184.246 453.531 184.428 468.652 183.262 483.698C181.319 508.701 176.325 524.507 170.055 551.179C166.222 567.468 161.068 591.446 156.389 621.433C155.303 622.053 152.116 623.685 148.009 623.076C146.214 622.805 144.498 622.153 142.976 621.164C130.718 583.707 134.338 560.494 140.253 546.034C142.774 539.869 145.84 535.006 147.467 525.53C149.629 512.993 146.955 505.985 143.143 476.948C140.425 456.249 140.896 453.05 142.704 449.946C149.93 437.538 172.038 437.781 182.718 438.517Z" fill="url(#paint20_linear_36_200)"/>
<path d="M140.529 442.873C133.021 481.653 125.651 502.021 120.074 513.54C116.056 521.672 112.613 530.075 109.772 538.689C105.929 550.322 104.328 558.879 103.51 562.645C100.92 574.533 94.5221 591.889 77.3046 614.654C77.0909 614.78 74.1468 616.44 71.3485 614.96C70.3078 614.393 69.4667 613.519 68.9388 612.458C71.1906 590.693 73.7727 572.405 76.0172 558.289C76.4884 555.328 78.5605 542.376 81.8106 525.253C83.081 518.556 84.9442 508.735 87.1765 498.664C89.9578 486.113 94.2209 469.029 100.78 448.579L140.529 442.873Z" fill="url(#paint21_linear_36_200)"/>
<path d="M146.923 289.482C151.181 285.544 159.328 281.006 163.414 270.457C164.646 267.282 169.001 256.03 162.574 247.424C158.76 242.323 151.672 238.847 145.427 240.073C140.083 241.125 139.252 244.842 130.182 252.323C126.652 255.238 120.975 259.917 114.66 262.526C103.838 266.986 97.3376 262.788 86.4819 263.267C73.1364 263.857 57.6314 271.305 50.1619 282.136C36.9038 301.36 56.1084 320.861 41.5872 343.383C36.8285 350.763 34.4844 349.109 23.2134 363.392C11.9423 377.675 6.28494 384.843 7.28816 393.605C8.68246 405.768 21.7826 417.386 34.1176 418.176C46.166 418.948 53.8274 409.467 59.9609 413.614C64.3333 416.565 61.8313 422.305 66.4685 429.204C72.4465 438.097 84.201 439.868 86.0933 440.154C103.707 442.812 127.456 422.157 137.542 397.689C155.719 353.561 123.769 310.882 146.923 289.482Z" fill="url(#paint22_linear_36_200)"/>
<path d="M219.194 301.729C219.315 289.414 191.337 279.571 178.535 276.401C158.617 271.467 142.674 274.564 138.802 275.383C113.967 280.647 98.5012 295.545 92.6786 301.812C97.4469 304.916 110.601 314.387 117.115 332.353C119.144 337.94 125.131 357.055 116.566 374.957C111.633 385.271 102.903 393.015 96.2737 398.896C86.3289 407.718 81.1792 409.074 77.8465 416.978C74.2028 425.584 77.8732 429.78 73.3648 435.682C68.5236 441.998 62.8516 439.068 54.6436 445.467C46.2365 452.025 49.2292 457.415 41.5775 464.657C30.4595 475.18 15.7221 471.762 15.037 476.496C14.4468 480.57 24.9211 486.096 33.8189 488.338C51.4421 492.776 66.8135 485.326 71.385 483.03C84.0407 476.673 81.8545 472.556 91.5029 467.71C107.659 459.594 118.709 468.626 155.498 469.556C175.416 470.059 185.5 470.173 191.021 463.43C196.061 457.272 193.411 450.517 190.387 421.406C188.947 407.56 188.427 393.613 187.368 379.725C184.365 340.435 184.273 336.973 186.938 331.544C196.484 312.08 219.087 312.784 219.194 301.729Z" fill="url(#paint23_linear_36_200)"/>
<g style="mix-blend-mode:multiply" opacity="0.3">
<path d="M41.5775 464.659C49.2292 457.415 46.2365 452.028 54.6437 445.469C62.8516 439.071 68.5236 442.012 73.3648 435.685C77.8732 429.792 74.215 425.597 77.8465 416.981C81.1792 409.076 86.3289 407.721 96.2737 398.898C102.903 393.017 111.633 385.273 116.566 374.959C125.131 357.057 119.144 337.947 117.115 332.355C110.601 314.38 97.4397 304.919 92.6786 301.814C93.1377 301.328 93.6794 300.757 94.26 300.162C125.666 304.479 143.977 322.627 146.243 328C151.478 340.422 143.189 344.987 142.976 380.811C142.874 397.934 144.72 404.697 139.164 411.843C132.81 420.017 125.489 417.488 116.299 428.176C109.238 436.387 110.37 441.592 103.777 445.051C96.6891 448.77 92.1734 444.437 84.1792 446.142C70.8191 448.989 67.9649 464.392 59.1351 472.816C52.4575 479.188 40.1103 483.645 15.7634 478.862C15.1998 478.043 14.9278 477.242 15.0346 476.491C15.7221 471.754 30.4595 475.172 41.5775 464.659Z" fill="url(#paint24_linear_36_200)"/>
</g>
<path d="M136.716 337.663C140.053 344.751 124.711 361.264 107.661 369.105C104.188 370.704 79.2408 382.174 68.1179 371.144C58.931 362.03 64.8605 343.18 66.9762 336.451C77.3728 303.41 109.296 286.606 122.676 280.533C132.662 305.499 126.781 316.625 124.466 320.098C122.037 323.725 115.301 331.347 108.133 338.074C103.092 342.796 99.9538 345.094 100.374 345.832C100.901 346.748 106.809 345.016 129.766 333.845C132.421 334.272 135.574 335.241 136.716 337.663Z" fill="url(#paint25_linear_36_200)"/>
<path d="M232.751 296.929L221.489 353.013C221.313 353.892 220.883 354.7 220.253 355.339C219.623 355.977 218.82 356.417 217.943 356.605L133.971 374.627C133.271 374.774 132.546 374.757 131.853 374.576C131.161 374.395 130.52 374.055 129.982 373.584C129.443 373.113 129.021 372.523 128.75 371.861C128.479 371.198 128.365 370.482 128.418 369.769L132.851 312.731C132.925 311.766 133.301 310.849 133.927 310.111C134.552 309.373 135.395 308.852 136.334 308.621C149.653 305.334 200.924 293.021 227.963 291.423C228.667 291.38 229.371 291.499 230.022 291.772C230.672 292.045 231.251 292.464 231.714 292.996C232.176 293.528 232.511 294.16 232.69 294.842C232.87 295.524 232.891 296.238 232.751 296.929Z" fill="url(#paint26_linear_36_200)"/>
<path d="M148.997 255.97C148.997 255.97 147.411 268.633 142.74 271.533C138.069 274.433 130.509 278.223 129.679 279.253C128.848 280.283 158.629 283.482 173.403 276.034C168.544 275.019 167.216 274.647 167.216 274.647C165.894 274.273 163.431 273.578 160.963 272.172C158.228 270.59 155.881 268.419 154.091 265.815L154.145 258.805L148.997 255.97Z" fill="white"/>
<path d="M148.286 260.454C148.286 260.454 151.332 264.637 156.112 262.895C160.39 261.333 157.837 250.283 154.443 249.022C153.311 248.602 151.232 248.78 149.843 249.654C148.871 250.264 146.255 253.507 147.751 257.14C146.67 256.827 145.718 257.111 145.48 257.646C145.179 258.326 146.092 259.249 146.301 259.46C146.843 259.991 147.537 260.338 148.286 260.454Z" fill="white"/>
<path style="mix-blend-mode:multiply" opacity="0.3" d="M157.13 345.419C166.149 342.878 173.628 349.191 180.814 344.204C188.174 339.086 183.369 330.344 191.016 321.747C199.197 312.555 209.577 317.059 217.148 308.681C219.959 305.572 222.492 300.505 222.526 291.864C224.423 291.68 226.24 291.534 227.958 291.432C228.661 291.392 229.364 291.514 230.013 291.788C230.662 292.061 231.24 292.48 231.702 293.012C232.164 293.543 232.498 294.173 232.679 294.854C232.86 295.535 232.883 296.248 232.746 296.939L221.482 353.022C221.306 353.901 220.877 354.71 220.247 355.349C219.618 355.987 218.815 356.427 217.938 356.615L137.238 373.934C142.941 353.933 150.545 347.277 157.13 345.419Z" fill="url(#paint27_linear_36_200)"/>
<path d="M226.845 326.766C226.845 326.766 232.204 321.815 232.787 316.063C233.37 310.311 229.326 305.71 225.41 304.537C221.494 303.364 219.405 305.093 222.033 310.756C224.662 316.418 228.832 320.095 226.845 326.766Z" fill="white"/>
<g style="mix-blend-mode:multiply">
<path style="mix-blend-mode:multiply" opacity="0.3" d="M358.605 323.708C360.33 323.708 361.947 324.621 363.249 326.161H363.264C377.72 285.544 425.335 255.328 482.472 254.791C493.77 254.67 505.049 255.752 516.118 258.02H516.152C558.844 266.786 592.839 292.627 604.97 325.792C606.345 324.201 608.22 323.261 610.04 323.258C614.691 323.258 618.721 329.312 618.721 336.793V376.145C618.721 383.636 614.871 389.675 610.219 389.651H610.078H609.947C607.171 389.636 604.559 387.452 603.036 384.11C585.94 423.163 538.148 450.774 482.485 450.096C467.523 449.95 452.66 447.659 438.348 443.295C403.76 432.677 376.743 410.463 365.059 382.961C363.602 386.204 361.236 388.305 358.607 388.305C354.218 388.283 350.611 382.373 350.611 375.108V336.888C350.608 329.613 354.213 323.717 358.605 323.708Z" fill="url(#paint28_linear_36_200)"/>
<path style="mix-blend-mode:multiply" opacity="0.3" d="M445.533 464.577L519.73 465.602C529.137 465.744 538.339 468.364 546.411 473.195C552.863 477.034 558.461 482.151 562.861 488.234C573.025 502.262 576.029 520.218 570.958 536.573C570.853 536.906 570.749 537.248 570.644 537.581L568.701 543.829C564.772 556.46 560.855 569.076 556.949 581.677C546.968 613.823 517.425 634.925 484.09 633.844C473.752 633.507 463.577 631.172 454.127 626.967C432.549 617.382 415.446 598.547 408.297 574.741C404.817 563.155 401.335 551.58 397.852 540.017L395.984 533.806L395.683 532.8C390.81 516.572 393.698 499.072 403.485 485.642C408.29 479.015 414.618 473.641 421.937 469.974C429.255 466.308 437.348 464.457 445.533 464.577Z" fill="url(#paint29_linear_36_200)"/>
</g>
<path d="M356.55 346.082C356.562 356.401 358.665 366.61 362.732 376.094C374.149 402.982 400.565 424.7 434.379 435.077C448.368 439.344 462.897 441.583 477.522 441.723C531.934 442.384 578.655 415.392 595.368 377.216C603.378 359.174 604.038 338.719 597.206 320.198C585.35 287.774 552.149 262.514 510.412 253.944C499.592 251.727 488.566 250.669 477.522 250.786C421.652 251.311 375.12 280.851 360.988 320.557C358.056 328.748 356.555 337.382 356.55 346.082Z" fill="white"/>
<path d="M420.763 397.373L531.084 398.167C553.674 398.33 572.08 379.949 572.08 357.115V332.963C572.08 322.644 563.758 314.295 553.512 314.317L398.996 314.659C389.127 314.681 381.14 322.884 381.14 332.985V356.622C381.14 378.953 398.836 397.203 420.763 397.373Z" fill="#D8DEE8"/>
<path d="M469.674 417.853L485.395 418.001C507.191 418.207 524.941 400.421 524.941 378.273C524.941 356.124 507.191 338.161 485.395 338.149H469.674C448.055 338.149 430.616 355.896 430.616 377.811C430.611 399.717 448.055 417.649 469.674 417.853Z" fill="#D8DEE8"/>
<path d="M417.822 378.749L535.332 379.346C551.403 379.427 564.482 366.339 564.482 350.11V339.395C564.482 329.083 556.174 320.737 545.945 320.751L407.53 320.958C397.638 320.973 389.639 329.178 389.639 339.288V349.794C389.63 365.705 402.229 378.669 417.822 378.749Z" fill="url(#paint30_linear_36_200)"/>
<path d="M500.703 353.369C499.581 351.744 498.886 349.918 498.886 347.948C498.886 341.571 505.564 336.402 513.818 336.405C522.072 336.407 528.801 341.596 528.801 347.996C528.801 349.971 528.099 351.803 526.969 353.428L500.703 353.369Z" fill="#D8DEE8"/>
<path d="M426.222 353.207C425.119 351.596 424.432 349.784 424.432 347.831C424.432 341.516 430.99 336.383 439.115 336.385C447.241 336.388 453.848 341.533 453.848 347.877C453.848 349.838 453.161 351.652 452.048 353.265L426.222 353.207Z" fill="#D8DEE8"/>
<path d="M594.612 330.959V369.365C594.612 372.295 594.785 375.01 595.79 377.216C597.279 380.483 599.39 382.616 602.106 382.631C606.653 382.655 610.047 376.752 610.047 369.428V330.951C610.047 323.637 606.442 317.713 601.895 317.72C600.117 317.72 598.513 318.641 597.168 320.198C596.798 320.62 596.893 321.094 596.575 321.609C595.083 324.014 594.612 327.308 594.612 330.959Z" fill="url(#paint31_linear_36_200)"/>
<path d="M356.477 381.304C360.774 381.326 364.25 375.576 364.25 368.462V331.034C364.25 323.919 360.764 318.16 356.477 318.16C352.185 318.16 348.704 323.931 348.704 331.034V368.394C348.704 375.511 352.178 381.28 356.477 381.304Z" fill="url(#paint32_linear_36_200)"/>
<path d="M392.683 522.584C392.78 522.907 392.877 523.242 392.977 523.555L394.801 529.628C398.202 540.938 401.603 552.254 405.003 563.577C411.992 586.838 428.714 605.253 449.808 614.625C459.046 618.736 468.992 621.021 479.098 621.354C511.685 622.41 540.555 601.78 550.325 570.342C554.148 558.015 557.978 545.682 561.814 533.342L563.709 527.235C563.811 526.91 563.913 526.575 564.015 526.247C568.973 510.256 566.034 492.701 556.101 478.988C551.8 473.042 546.328 468.038 540.02 464.285C532.127 459.571 523.132 457.02 513.939 456.886L441.404 455.885C433.404 455.771 425.494 457.583 418.342 461.168C411.19 464.753 405.005 470.006 400.31 476.484C390.74 489.609 387.917 506.719 392.683 522.584Z" fill="white"/>
<path d="M392.977 523.565L394.801 529.638L561.819 533.362L563.714 527.255L392.977 523.565Z" fill="#D8DEE8"/>
<g style="mix-blend-mode:multiply" opacity="0.3">
<path d="M468.743 417.831C457.929 424.875 446.196 430.632 434.379 435.077C448.368 439.344 462.897 441.582 477.522 441.723C531.934 442.384 578.655 415.392 595.368 377.216C596.857 380.483 599.179 382.616 601.892 382.63C606.44 382.655 610.044 376.752 610.044 369.428V330.951C610.044 323.637 606.44 317.713 601.892 317.72C600.114 317.72 598.511 318.64 597.165 320.198C585.306 287.774 552.127 262.513 510.39 253.944C506.443 268.032 506.564 285.563 513.806 307.321C514.602 309.704 515.295 312.058 515.899 314.38C516.465 316.539 516.942 318.679 517.345 320.797C518.374 326.172 518.905 331.63 518.931 337.102C518.95 342.575 518.417 348.035 517.337 353.401C517.265 353.726 517.206 354.042 517.126 354.373C515.22 363.124 511.91 371.509 507.325 379.203C503.31 385.955 498.531 392.222 493.083 397.88C485.919 405.389 477.653 412.037 468.743 417.831Z" fill="#D8DEE8"/>
</g>
<g style="mix-blend-mode:multiply" opacity="0.3">
<path d="M449.813 614.634C459.051 618.745 468.997 621.03 479.103 621.363C511.69 622.42 540.56 601.789 550.33 570.352C554.153 558.025 557.983 545.691 561.819 533.352L563.714 527.245C563.816 526.919 563.918 526.584 564.02 526.256C568.978 510.265 566.039 492.71 556.106 478.998C551.805 473.051 546.332 468.047 540.025 464.294C539.668 482.287 543.028 502.606 518.176 526.261C516.106 528.233 513.839 530.222 511.374 532.227C505.301 537.182 497.934 542.261 489.026 547.479C446.446 572.436 435.885 597.12 449.813 614.634Z" fill="#D8DEE8"/>
</g>
<defs>
<linearGradient id="paint0_linear_36_200" x1="630.362" y1="77.9482" x2="241.558" y2="569.178" gradientUnits="userSpaceOnUse">
<stop stop-color="#6165D7"/>
<stop offset="1" stop-color="#AA80F9"/>
</linearGradient>
<linearGradient id="paint1_linear_36_200" x1="630.582" y1="266.431" x2="313.945" y2="524.295" gradientUnits="userSpaceOnUse">
<stop stop-color="#E38DDD"/>
<stop offset="1" stop-color="#9571F6"/>
</linearGradient>
<linearGradient id="paint2_linear_36_200" x1="599.118" y1="333.39" x2="251.081" y2="833.694" gradientUnits="userSpaceOnUse">
<stop stop-color="#FF9085"/>
<stop offset="1" stop-color="#FB6FBB"/>
</linearGradient>
<linearGradient id="paint3_linear_36_200" x1="303.299" y1="612.975" x2="299.672" y2="583.957" gradientUnits="userSpaceOnUse">
<stop stop-color="#26264F"/>
<stop offset="1" stop-color="#444B8C"/>
</linearGradient>
<linearGradient id="paint4_linear_36_200" x1="318.219" y1="586.53" x2="281.945" y2="521.241" gradientUnits="userSpaceOnUse">
<stop stop-color="#26264F"/>
<stop offset="1" stop-color="#444B8C"/>
</linearGradient>
<linearGradient id="paint5_linear_36_200" x1="359.239" y1="555.588" x2="238.853" y2="555.588" gradientUnits="userSpaceOnUse">
<stop stop-color="#26264F"/>
<stop offset="1" stop-color="#444B8C"/>
</linearGradient>
<linearGradient id="paint6_linear_36_200" x1="314.764" y1="568.688" x2="278.945" y2="499.772" gradientUnits="userSpaceOnUse">
<stop stop-color="#26264F"/>
<stop offset="1" stop-color="#444B8C"/>
</linearGradient>
<linearGradient id="paint7_linear_36_200" x1="364.632" y1="535.298" x2="233.518" y2="535.298" gradientUnits="userSpaceOnUse">
<stop stop-color="#26264F"/>
<stop offset="1" stop-color="#444B8C"/>
</linearGradient>
<linearGradient id="paint8_linear_36_200" x1="366.575" y1="511.609" x2="231.517" y2="511.609" gradientUnits="userSpaceOnUse">
<stop stop-color="#26264F"/>
<stop offset="1" stop-color="#444B8C"/>
</linearGradient>
<linearGradient id="paint9_linear_36_200" x1="302.4" y1="501.421" x2="289.101" y2="439.154" gradientUnits="userSpaceOnUse">
<stop stop-color="#26264F"/>
<stop offset="1" stop-color="#444B8C"/>
</linearGradient>
<linearGradient id="paint10_linear_36_200" x1="327.94" y1="153.979" x2="64.0759" y2="572.9" gradientUnits="userSpaceOnUse">
<stop stop-color="#FCB148"/>
<stop offset="0.05" stop-color="#FDBA46"/>
<stop offset="0.14" stop-color="#FFC244"/>
<stop offset="0.32" stop-color="#FFC444"/>
<stop offset="0.48" stop-color="#FDB946"/>
<stop offset="0.78" stop-color="#F99C4D"/>
<stop offset="0.87" stop-color="#F8924F"/>
<stop offset="1" stop-color="#F8924F"/>
</linearGradient>
<linearGradient id="paint11_linear_36_200" x1="376.146" y1="476.542" x2="322.341" y2="319.364" gradientUnits="userSpaceOnUse">
<stop offset="0.49" stop-color="#EBEFF2"/>
<stop offset="1" stop-color="white"/>
</linearGradient>
<linearGradient id="paint12_linear_36_200" x1="324.707" y1="494.151" x2="270.905" y2="336.971" gradientUnits="userSpaceOnUse">
<stop offset="0.49" stop-color="#EBEFF2"/>
<stop offset="1" stop-color="white"/>
</linearGradient>
<linearGradient id="paint13_linear_36_200" x1="394.881" y1="470.13" x2="341.079" y2="312.952" gradientUnits="userSpaceOnUse">
<stop offset="0.49" stop-color="#EBEFF2"/>
<stop offset="1" stop-color="white"/>
</linearGradient>
<linearGradient id="paint14_linear_36_200" x1="318.68" y1="59.552" x2="371.275" y2="493.002" gradientUnits="userSpaceOnUse">
<stop stop-color="#FCB148"/>
<stop offset="0.05" stop-color="#FDBA46"/>
<stop offset="0.14" stop-color="#FFC244"/>
<stop offset="0.32" stop-color="#FFC444"/>
<stop offset="0.48" stop-color="#FDB946"/>
<stop offset="0.78" stop-color="#F99C4D"/>
<stop offset="0.87" stop-color="#F8924F"/>
<stop offset="1" stop-color="#F8924F"/>
</linearGradient>
<linearGradient id="paint15_linear_36_200" x1="407.243" y1="186.633" x2="150.61" y2="186.633" gradientUnits="userSpaceOnUse">
<stop stop-color="#FCB148"/>
<stop offset="0.05" stop-color="#FDBA46"/>
<stop offset="0.14" stop-color="#FFC244"/>
<stop offset="0.32" stop-color="#FFC444"/>
<stop offset="0.48" stop-color="#FDB946"/>
<stop offset="0.78" stop-color="#F99C4D"/>
<stop offset="0.87" stop-color="#F8924F"/>
<stop offset="1" stop-color="#F8924F"/>
</linearGradient>
<linearGradient id="paint16_linear_36_200" x1="166.64" y1="631.631" x2="145.553" y2="631.631" gradientUnits="userSpaceOnUse">
<stop stop-color="#AA80F9"/>
<stop offset="1" stop-color="#6165D7"/>
</linearGradient>
<linearGradient id="paint17_linear_36_200" x1="153.032" y1="624.105" x2="145.694" y2="624.105" gradientUnits="userSpaceOnUse">
<stop stop-color="#F36F56"/>
<stop offset="1" stop-color="#FFC444"/>
</linearGradient>
<linearGradient id="paint18_linear_36_200" x1="75.461" y1="629.353" x2="59.0889" y2="629.353" gradientUnits="userSpaceOnUse">
<stop stop-color="#AA80F9"/>
<stop offset="1" stop-color="#6165D7"/>
</linearGradient>
<linearGradient id="paint19_linear_36_200" x1="78.5291" y1="619.58" x2="63.9374" y2="619.58" gradientUnits="userSpaceOnUse">
<stop stop-color="#F36F56"/>
<stop offset="1" stop-color="#FFC444"/>
</linearGradient>
<linearGradient id="paint20_linear_36_200" x1="22.1567" y1="446.761" x2="102.016" y2="493.922" gradientUnits="userSpaceOnUse">
<stop stop-color="#311944"/>
<stop offset="1" stop-color="#893976"/>
</linearGradient>
<linearGradient id="paint21_linear_36_200" x1="7.84675" y1="470.992" x2="87.7061" y2="518.153" gradientUnits="userSpaceOnUse">
<stop stop-color="#311944"/>
<stop offset="1" stop-color="#893976"/>
</linearGradient>
<linearGradient id="paint22_linear_36_200" x1="69.0628" y1="376.735" x2="103.362" y2="328.146" gradientUnits="userSpaceOnUse">
<stop stop-color="#444B8C"/>
<stop offset="1" stop-color="#26264F"/>
</linearGradient>
<linearGradient id="paint23_linear_36_200" x1="135.234" y1="278.577" x2="106.925" y2="451.702" gradientUnits="userSpaceOnUse">
<stop stop-color="#FF9085"/>
<stop offset="1" stop-color="#FB6FBB"/>
</linearGradient>
<linearGradient id="paint24_linear_36_200" x1="106.078" y1="273.809" x2="77.7663" y2="446.936" gradientUnits="userSpaceOnUse">
<stop stop-color="#FF9085"/>
<stop offset="1" stop-color="#FB6FBB"/>
</linearGradient>
<linearGradient id="paint25_linear_36_200" x1="111.934" y1="274.766" x2="83.6229" y2="447.894" gradientUnits="userSpaceOnUse">
<stop stop-color="#FF9085"/>
<stop offset="1" stop-color="#FB6FBB"/>
</linearGradient>
<linearGradient id="paint26_linear_36_200" x1="167.422" y1="304.904" x2="256.755" y2="495.553" gradientUnits="userSpaceOnUse">
<stop stop-color="#444B8C"/>
<stop offset="1" stop-color="#26264F"/>
</linearGradient>
<linearGradient id="paint27_linear_36_200" x1="232.843" y1="332.668" x2="137.243" y2="332.668" gradientUnits="userSpaceOnUse">
<stop stop-color="#444B8C"/>
<stop offset="1" stop-color="#26264F"/>
</linearGradient>
<linearGradient id="paint28_linear_36_200" x1="618.724" y1="352.446" x2="350.611" y2="352.446" gradientUnits="userSpaceOnUse">
<stop stop-color="#444B8C"/>
<stop offset="1" stop-color="#26264F"/>
</linearGradient>
<linearGradient id="paint29_linear_36_200" x1="573.377" y1="549.231" x2="393.373" y2="549.231" gradientUnits="userSpaceOnUse">
<stop stop-color="#444B8C"/>
<stop offset="1" stop-color="#26264F"/>
</linearGradient>
<linearGradient id="paint30_linear_36_200" x1="564.472" y1="350.049" x2="389.63" y2="350.049" gradientUnits="userSpaceOnUse">
<stop stop-color="#444B8C"/>
<stop offset="1" stop-color="#26264F"/>
</linearGradient>
<linearGradient id="paint31_linear_36_200" x1="610.044" y1="350.175" x2="594.615" y2="350.175" gradientUnits="userSpaceOnUse">
<stop stop-color="#444B8C"/>
<stop offset="1" stop-color="#26264F"/>
</linearGradient>
<linearGradient id="paint32_linear_36_200" x1="364.255" y1="349.736" x2="348.702" y2="349.736" gradientUnits="userSpaceOnUse">
<stop stop-color="#444B8C"/>
<stop offset="1" stop-color="#26264F"/>
</linearGradient>
</defs>
</svg>
