<svg width="56" height="56" viewBox="0 0 56 56" fill="none" xmlns="http://www.w3.org/2000/svg">
<g clip-path="url(#clip0_79_189)">
<g clip-path="url(#clip1_79_189)">
<path d="M28 0C12.5361 0 0 12.5363 0 28C0 43.4647 12.5363 56 28 56C43.465 56 56 43.4647 56 28C56 12.5374 43.465 0.00153125 27.9996 0.00153125L28 0ZM40.8404 40.3843C40.3388 41.2068 39.2621 41.4676 38.4396 40.9627C31.8655 36.9471 23.5898 36.0375 13.8434 38.2644C13.392 38.3672 12.9184 38.2865 12.5265 38.0401C12.1347 37.7936 11.8568 37.4017 11.7539 36.9504C11.7026 36.727 11.696 36.4957 11.7342 36.2697C11.7725 36.0437 11.8549 35.8275 11.9768 35.6334C12.0987 35.4393 12.2577 35.2711 12.4447 35.1385C12.6316 35.0059 12.8429 34.9115 13.0664 34.8607C23.7326 32.4238 32.8814 33.4729 40.262 37.9835C41.0845 38.4884 41.3453 39.5618 40.8404 40.3843ZM44.2676 32.7602C43.6354 33.7873 42.2914 34.1117 41.265 33.4797C33.7387 28.8536 22.2659 27.5137 13.3639 30.2159C12.2093 30.5646 10.99 29.9141 10.6396 28.7615C10.2918 27.6069 10.9427 26.3898 12.0953 26.0389C22.2639 22.9532 34.9055 24.4479 43.5488 29.7592C44.5751 30.3914 44.8995 31.7352 44.2676 32.7602ZM44.5618 24.8211C35.5375 19.4609 20.6487 18.9678 12.0328 21.5832C10.6492 22.0028 9.18597 21.2216 8.76684 19.838C8.3475 18.4538 9.12778 16.9916 10.5125 16.571C20.4028 13.5684 36.8449 14.1488 47.2345 20.3166C48.4818 21.0551 48.8895 22.6625 48.1506 23.9052C47.4152 25.1499 45.8034 25.5601 44.5631 24.8211H44.5618Z" fill="#1ED760"/>
</g>
</g>
<defs>
<clipPath id="clip0_79_189">
<rect width="56" height="56" fill="white"/>
</clipPath>
<clipPath id="clip1_79_189">
<rect width="56" height="56" fill="white"/>
</clipPath>
</defs>
</svg>
