<svg width="20" height="20" viewBox="0 0 20 20" fill="none" xmlns="http://www.w3.org/2000/svg">
<g clip-path="url(#clip0_92_178)">
<path d="M10 0C7.34784 0 4.8043 1.05357 2.92893 2.92893C1.05357 4.8043 0 7.34784 0 10C0 12.6522 1.05357 15.1957 2.92893 17.0711C4.8043 18.9464 7.34784 20 10 20C12.6522 20 15.1957 18.9464 17.0711 17.0711C18.9464 15.1957 20 12.6522 20 10C20 7.34784 18.9464 4.8043 17.0711 2.92893C15.1957 1.05357 12.6522 0 10 0ZM14.5862 14.4225C14.4996 14.5633 14.3608 14.664 14.2001 14.7027C14.0394 14.7413 13.8699 14.7147 13.7287 14.6288C11.38 13.195 8.425 12.87 4.94375 13.6662C4.78247 13.703 4.61317 13.6743 4.4731 13.5862C4.33304 13.4982 4.23367 13.3582 4.19688 13.1969C4.16008 13.0356 4.18885 12.8663 4.27688 12.7262C4.3649 12.5862 4.50497 12.4868 4.66625 12.45C8.47625 11.58 11.7438 11.9538 14.3788 13.565C14.5197 13.6514 14.6207 13.7902 14.6596 13.9509C14.6985 14.1116 14.6721 14.2812 14.5862 14.4225ZM15.81 11.7C15.7017 11.8761 15.5279 12.0021 15.3268 12.0501C15.1257 12.0982 14.9137 12.0644 14.7375 11.9562C12.05 10.305 7.9525 9.82625 4.7725 10.7913C4.57894 10.8372 4.37513 10.8077 4.20264 10.7085C4.03014 10.6094 3.90196 10.4482 3.84424 10.2578C3.78651 10.0675 3.8036 9.86221 3.89201 9.68399C3.98042 9.50577 4.13349 9.36798 4.32 9.29875C7.95125 8.1975 12.4663 8.73125 15.5525 10.6275C15.7289 10.7356 15.8551 10.9093 15.9033 11.1104C15.9516 11.3116 15.9181 11.5236 15.81 11.7ZM15.915 8.865C12.6925 6.95 7.375 6.77375 4.2975 7.7075C4.06013 7.77944 3.80391 7.75414 3.58519 7.63716C3.36648 7.52019 3.20319 7.32112 3.13125 7.08375C3.05931 6.84638 3.08461 6.59016 3.20159 6.37144C3.31856 6.15273 3.51763 5.98944 3.755 5.9175C7.28625 4.84625 13.1588 5.0525 16.87 7.255C17.0835 7.38164 17.2379 7.58791 17.2994 7.82842C17.3608 8.06894 17.3241 8.324 17.1975 8.5375C17.0709 8.751 16.8646 8.90545 16.6241 8.96686C16.3836 9.02828 16.1285 8.99164 15.915 8.865Z" fill="#BEB8F2"/>
</g>
<defs>
<clipPath id="clip0_92_178">
<rect width="20" height="20" fill="white"/>
</clipPath>
</defs>
</svg>
